<?xml version="1.0" encoding="iso-8859-1"?>
<!-- Generator: Adobe Illustrator 19.0.0, SVG Export Plug-In . SVG Version: 6.00 Build 0)  -->
<svg version="1.1" id="Layer_1" xmlns="http://www.w3.org/2000/svg" xmlns:xlink="http://www.w3.org/1999/xlink" x="0px" y="0px"
	 viewBox="0 0 512.002 512.002" style="enable-background:new 0 0 512.002 512.002;" xml:space="preserve">
<path style="fill:#F5F6F6;" d="M389.165,81.471L0,200.955v41.615h511.998v-41.615C511.998,200.955,500.781,102.113,389.165,81.471z"
	/>
<rect y="200.949" style="fill:#FAD8C5;" width="512" height="273.313"/>
<rect x="256" y="200.949" style="fill:#F4CDB9;" width="256" height="273.313"/>
<circle style="fill:#D02D7F;" cx="389.525" cy="87.071" r="49.331"/>
<path style="fill:#C42C78;" d="M438.857,87.076c0,27.246-22.086,49.332-49.332,49.332c0-31.985,0-87.615,0-98.664
	C416.77,37.744,438.857,59.83,438.857,87.076z"/>
<g>
	<path style="fill:#FC9FD8;" d="M512,315.975c-23.816,0-36.42-3.576-47.54-6.73c-10.165-2.884-18.943-5.374-37.79-5.374
		s-27.625,2.49-37.789,5.374c-11.119,3.154-23.722,6.73-47.539,6.73c-23.818,0-36.42-3.576-47.54-6.73
		c-10.165-2.884-18.943-5.374-37.792-5.374s-27.628,2.49-37.792,5.374c-11.12,3.154-23.723,6.73-47.541,6.73
		c-23.819,0-36.423-3.576-47.543-6.73c-10.165-2.884-18.944-5.374-37.794-5.374s-27.629,2.49-37.794,5.374
		c-11.12,3.154-23.725,6.73-47.543,6.73v-35.721c18.851,0,27.63-2.491,37.795-5.374c11.12-3.154,23.725-6.73,47.543-6.73
		s36.422,3.576,47.543,6.73c10.165,2.883,18.944,5.374,37.795,5.374c18.849,0,27.628-2.491,37.793-5.374
		c11.12-3.154,23.723-6.73,47.541-6.73s36.42,3.576,47.54,6.73c10.165,2.883,18.943,5.374,37.792,5.374
		c18.848,0,27.625-2.49,37.788-5.374c11.119-3.154,23.722-6.73,47.539-6.73s36.42,3.576,47.54,6.73
		c10.165,2.883,18.943,5.374,37.79,5.374v35.721H512z"/>
	<path style="fill:#FC9FD8;" d="M512,407.08c-23.816,0-36.42-3.576-47.54-6.73c-10.165-2.883-18.943-5.374-37.79-5.374
		s-27.625,2.49-37.789,5.374c-11.119,3.154-23.722,6.73-47.539,6.73c-23.818,0-36.421-3.576-47.54-6.73
		c-10.165-2.884-18.943-5.374-37.79-5.374c-18.849,0-27.628,2.491-37.793,5.374c-11.12,3.154-23.723,6.73-47.541,6.73
		c-23.819,0-36.423-3.576-47.543-6.73c-10.165-2.883-18.944-5.374-37.794-5.374s-27.629,2.491-37.794,5.374
		c-11.12,3.154-23.725,6.73-47.543,6.73V371.36c18.851,0,27.63-2.491,37.795-5.375c11.12-3.154,23.725-6.73,47.543-6.73
		s36.422,3.576,47.543,6.73c10.165,2.884,18.944,5.375,37.795,5.375c18.849,0,27.628-2.49,37.793-5.374
		c11.12-3.154,23.723-6.73,47.541-6.73c23.816,0,36.42,3.576,47.54,6.73c10.165,2.884,18.943,5.374,37.792,5.374
		c18.848,0,27.625-2.49,37.788-5.374c11.119-3.154,23.722-6.73,47.539-6.73s36.42,3.576,47.54,6.73
		c10.165,2.884,18.943,5.374,37.79,5.374v35.721H512z"/>
</g>
<g>
	<path style="fill:#EC96CB;" d="M293.802,309.246c11.12,3.154,23.722,6.73,47.54,6.73c23.816,0,36.419-3.576,47.539-6.73
		c10.164-2.884,18.942-5.374,37.789-5.374c18.849,0,27.627,2.49,37.79,5.374c11.119,3.154,23.722,6.73,47.54,6.73v-35.721
		c-18.849,0-27.627-2.491-37.79-5.374c-11.119-3.154-23.722-6.73-47.54-6.73c-23.818,0-36.42,3.576-47.539,6.73
		c-10.164,2.884-18.942,5.374-37.788,5.374c-18.849,0-27.627-2.491-37.792-5.374c-11.12-3.154-23.722-6.73-47.54-6.73
		c-0.005,0-0.008,0-0.012,0v35.721c0.005,0,0.008,0,0.012,0C274.859,303.872,283.637,306.362,293.802,309.246z"/>
	<path style="fill:#EC96CB;" d="M256.012,394.977c18.849,0,27.627,2.49,37.79,5.374c11.119,3.154,23.722,6.73,47.54,6.73
		c23.816,0,36.419-3.576,47.539-6.73c10.164-2.884,18.942-5.374,37.789-5.374c18.849,0,27.627,2.491,37.79,5.374
		c11.119,3.154,23.722,6.73,47.54,6.73V371.36c-18.849,0-27.627-2.49-37.79-5.374c-11.119-3.154-23.722-6.73-47.54-6.73
		c-23.818,0-36.42,3.576-47.539,6.73c-10.164,2.884-18.942,5.374-37.788,5.374c-18.849,0-27.627-2.49-37.792-5.374
		c-11.119-3.154-23.722-6.73-47.54-6.73c-0.005,0-0.008,0-0.013,0v35.721C256.004,394.977,256.007,394.977,256.012,394.977z"/>
</g>
<g>
</g>
<g>
</g>
<g>
</g>
<g>
</g>
<g>
</g>
<g>
</g>
<g>
</g>
<g>
</g>
<g>
</g>
<g>
</g>
<g>
</g>
<g>
</g>
<g>
</g>
<g>
</g>
<g>
</g>
</svg>
