<?xml version="1.0" encoding="iso-8859-1"?>
<!-- Generator: Adobe Illustrator 19.0.0, SVG Export Plug-In . SVG Version: 6.00 Build 0)  -->
<svg version="1.1" id="Capa_1" xmlns="http://www.w3.org/2000/svg" xmlns:xlink="http://www.w3.org/1999/xlink" x="0px" y="0px"
	 viewBox="0 0 101.52 101.52" style="enable-background:new 0 0 101.52 101.52;" xml:space="preserve">
<g>
	<path d="M62.035,26.375c-5.158,0-9.354,4.196-9.354,9.354c0,5.159,4.196,9.355,9.354,9.355s9.355-4.197,9.355-9.355
		S67.193,26.375,62.035,26.375z M62.035,39.084c-1.85,0-3.354-1.505-3.354-3.355s1.505-3.354,3.354-3.354
		c1.851,0,3.355,1.505,3.355,3.354C65.39,37.578,63.885,39.084,62.035,39.084z"/>
	<path d="M95.52,67.868h-3.032v-3.032v-6h-1.873v-46.02c0-3.598-2.928-6.524-6.525-6.524H6.526C2.927,6.293,0,9.22,0,12.817V80.98
		c0,3.598,2.928,6.524,6.526,6.524h67.636v1.723v6h6h6.326h6v-6v-3.032h3.032h6v-6v-6.327v-6H95.52z M5.999,80.98V12.816
		c0-0.289,0.236-0.524,0.526-0.524h77.563c0.29,0,0.525,0.235,0.525,0.524v46.02H80.16h-0.837v-41.38H11.209V62.98h62.952v1.855
		v3.032h-3.033h-6v6v6.327v1.31H6.526C6.236,81.505,5.999,81.27,5.999,80.98z M23.697,56.34l8.762-13.664l8.763,13.664H23.697z
		 M43.608,56.34l4.671-7.284l4.671,7.284H43.608z M60.489,56.98l-12.21-19.038l-5.863,9.144L32.46,31.563l-15.25,23.78V23.456
		h56.115V56.98H60.489z M95.52,80.195h-9.032v9.032h-6.326v-9.032h-9.033v-6.327h9.033v-9.032h6.326v9.032h9.032
		C95.52,73.868,95.52,80.195,95.52,80.195z"/>
</g>
<g>
</g>
<g>
</g>
<g>
</g>
<g>
</g>
<g>
</g>
<g>
</g>
<g>
</g>
<g>
</g>
<g>
</g>
<g>
</g>
<g>
</g>
<g>
</g>
<g>
</g>
<g>
</g>
<g>
</g>
</svg>
