<?xml version="1.0" encoding="iso-8859-1"?>
<!-- Generator: Adobe Illustrator 19.0.0, SVG Export Plug-In . SVG Version: 6.00 Build 0)  -->
<svg version="1.1" id="Layer_1" xmlns="http://www.w3.org/2000/svg" xmlns:xlink="http://www.w3.org/1999/xlink" x="0px" y="0px"
	 viewBox="0 0 310.5 310.5" style="enable-background:new 0 0 310.5 310.5;" xml:space="preserve">
<g>
	<g>
		<g>
			<path d="M308.604,246.968h-11.452V100.352c4.816-2.684,8.172-8.28,8.172-14.8c0-1.576-0.028-3.012-0.08-4.352
				c-0.008-0.124-0.024-0.248-0.052-0.368l-7.66-32.036c-0.204-0.852-0.964-1.452-1.84-1.452H64.888
				c-0.876,0-1.636,0.604-1.84,1.456l-7.436,31.372c-0.016,0.04-0.028,0.08-0.036,0.128c-0.012,0.052-0.028,0.116-0.032,0.18
				l-0.084,0.348c-0.072,0.292-0.056,0.588,0.024,0.876c-0.044,1.192-0.076,2.46-0.076,3.848c0,6.52,3.356,12.116,8.172,14.8v12.012
				H50.12c-1.108-12.832-11.892-22.936-25.004-22.936C11.268,89.428,0,100.696,0,114.544c0,13.848,11.268,25.116,25.116,25.116
				c13.308,0,24.2-10.412,25.032-23.512H63.58v130.82h-6.192c-1.044,0-1.892,0.844-1.892,1.892v12.404
				c0,1.044,0.844,1.892,1.892,1.892h251.22c1.044,0,1.892-0.844,1.892-1.892V248.86
				C310.496,247.812,309.648,246.968,308.604,246.968z M25.112,135.876c-11.764,0-21.332-9.568-21.332-21.332
				c0-11.764,9.568-21.332,21.332-21.332c11.764,0,21.332,9.568,21.332,21.332C46.444,126.308,36.876,135.876,25.112,135.876z
				 M301.544,85.552c0,7.024-4.796,12.736-10.692,12.736h-2.176c-5.752,0-10.448-5.604-10.696-12.768c0-0.448,0-0.824-0.016-1.148
				h23.564C301.528,84.776,301.544,85.124,301.544,85.552z M276.812,51.128h17.392l7.268,30.4c0.008,0.212,0.004,0.464,0.012,0.68
				h-24.672V51.128z M249.464,81.244L249.464,81.244l0-30.112h25.188v31.08h-24.648c-0.16-0.148-0.336-0.276-0.54-0.36V81.244z
				 M274.196,85.584c-0.016,7.008-4.804,12.708-10.692,12.708h-2.18c-5.896,0-10.692-5.712-10.692-12.736v-1.184h23.544
				C274.168,84.704,274.18,85.1,274.196,85.584z M222.116,51.128h25.188v29.88c-0.02,0.084-0.028,0.168-0.024,0.252
				c0.004,0.304,0.004,0.636,0.008,0.948h-24.632c-0.156-0.14-0.324-0.264-0.52-0.348c0.004-0.192,0.004-0.404,0.008-0.596
				c0.004-0.088-0.008-0.176-0.028-0.26V51.128z M246.816,84.368c-0.16,7.652-4.868,13.82-10.664,13.82h-2.18
				c-5.796,0-10.504-6.168-10.664-13.82H246.816z M194.768,81.324V51.128h25.188V81.24v0.968h-25.188V81.324z M195.928,84.368H219.5
				v1.184c0,7.024-4.796,12.736-10.692,12.736h-2.18c-5.896,0-10.692-5.712-10.692-12.736v-1.16
				C195.932,84.384,195.928,84.376,195.928,84.368z M167.412,51.128h0.004h25.192V80.92c-0.056,0.136-0.084,0.292-0.08,0.444
				c0.008,0.26,0.008,0.576,0.016,0.844h-25.06c0.008-0.268,0.008-0.584,0.016-0.84c0.008-0.144-0.024-0.288-0.088-0.42V51.128z
				 M168.58,84.368h23.576c0,0.008-0.004,0.016-0.004,0.024v1.16c0,7.024-4.796,12.736-10.692,12.736h-2.18
				c-5.896,0-10.692-5.712-10.692-12.736v-1.16C168.584,84.384,168.58,84.376,168.58,84.368z M140.064,81.324V51.128h25.188v30.196
				v0.884h-25.188V81.324z M141.228,84.368h23.576c0,0.008-0.004,0.016-0.004,0.024v1.16c0,7.024-4.796,12.736-10.696,12.736h-2.176
				c-5.896,0-10.692-5.712-10.692-12.736v-1.16C141.236,84.384,141.228,84.376,141.228,84.368z M112.712,51.128h0.004h25.188v29.8
				c-0.056,0.136-0.08,0.284-0.076,0.436c0.008,0.26,0.008,0.576,0.016,0.844h-25.06c0.008-0.268,0.008-0.584,0.016-0.84
				c0.008-0.144-0.024-0.288-0.088-0.42V51.128z M113.876,84.368h23.58c0,0.008-0.004,0.016-0.004,0.024v1.16
				c0,7.024-4.796,12.736-10.696,12.736h-2.176c-5.9,0-10.696-5.712-10.696-12.736v-1.16
				C113.884,84.384,113.876,84.376,113.876,84.368z M110.56,51.128v30.196v0.884H85.44c0.008-0.284,0.008-0.608,0.02-0.888
				l-0.084-30.192H110.56z M86.528,84.368h23.576c0,0.008-0.004,0.016-0.004,0.024v1.16c0,7.024-4.796,12.736-10.692,12.736h-2.176
				c-5.9,0-10.696-5.712-10.696-12.736v-1.16C86.532,84.384,86.528,84.376,86.528,84.368z M97.232,102.072h2.176
				c5.384,0,10.092-3.372,12.584-8.364c2.492,4.992,7.2,8.364,12.588,8.364h2.176c5.384,0,10.092-3.372,12.588-8.364
				c2.492,4.992,7.196,8.364,12.584,8.364h2.176c5.384,0,10.092-3.372,12.588-8.364c2.492,4.992,7.196,8.364,12.584,8.364h2.18
				c5.384,0,10.092-3.372,12.584-8.364c2.492,4.992,7.196,8.364,12.584,8.364h2.18c5.536,0,10.352-3.56,12.784-8.78
				c2.54,5.2,7.144,8.68,12.384,8.68h2.18c5.24,0,9.84-3.48,12.384-8.68c2.436,5.22,7.252,8.78,12.784,8.78h2.18
				c5.432,0,10.168-3.428,12.648-8.484c2.508,5.1,7.176,8.484,12.524,8.484h2.176c0.864,0,1.696-0.124,2.52-0.292v144.724h-4.016
				V236.38c0-1.044-0.844-1.892-1.892-1.892h-5.032V119.416c0-1.044-0.844-1.892-1.892-1.892h-58.464
				c-1.044,0-1.892,0.844-1.892,1.892v115.076h-5.184c-1.044,0-1.892,0.844-1.892,1.892v10.124H67.36V101.78
				c0.82,0.168,1.656,0.292,2.52,0.292h2.18c5.384,0,10.092-3.372,12.584-8.364C87.136,98.7,91.844,102.072,97.232,102.072z
				 M285.572,238.272v8.232h-68.688v-8.232H285.572z M223.96,234.064v-112.76h54.688v112.76H223.96z M59.272,81.136l7.112-30.004
				h16.828v29.8c-0.056,0.136-0.084,0.284-0.076,0.436c0.008,0.26,0.008,0.576,0.016,0.844h-23.9
				c0.012-0.284,0.016-0.58,0.028-0.856C59.28,81.28,59.28,81.204,59.272,81.136z M59.184,85.552c0-0.412,0.008-0.792,0.012-1.184
				h23.556c0,0.008-0.004,0.016-0.004,0.024v1.16c0,7.024-4.796,12.736-10.692,12.736h-2.18
				C63.984,98.288,59.184,92.576,59.184,85.552z M306.712,259.372H59.272v-8.624h247.44V259.372z"/>
			<path d="M268.536,132.672H234.38c-0.596,0-1.08,0.484-1.08,1.08v41.928h-0.832c-0.58-1.468-1.876-2.264-3.624-2.264
				c-2.332,0-4.224,1.996-4.224,4.452s1.896,4.448,4.224,4.448c1.736,0,3.092-0.88,3.72-2.4h0.74v29.532
				c0,0.596,0.484,1.08,1.08,1.08h34.152c0.596,0,1.08-0.484,1.08-1.08v-75.696C269.616,133.156,269.132,132.672,268.536,132.672z
				 M228.844,181.216c-1.756,0-3.184-1.504-3.184-3.352c0-1.848,1.428-3.356,3.184-3.356c1.16,0,2.136,0.356,2.676,1.168h-2.596
				c-1.168,0-2.116,0.948-2.116,2.116c0,1.168,0.948,2.116,2.116,2.116h2.68C231.056,180.816,230.032,181.216,228.844,181.216z
				 M228.924,178.836c-0.572,0-1.04-0.464-1.04-1.04c0-0.576,0.464-1.04,1.04-1.04h3.004c0,0.012,0.008,0.02,0.012,0.032
				c0.024-0.024,0.064-0.02,0.092-0.032h9.352c0.572,0,1.04,0.464,1.04,1.04c0,0.576-0.464,1.04-1.04,1.04H228.924z M267.46,208.368
				h-31.996v-28.452h5.924c1.168,0,2.116-0.948,2.116-2.116c0-1.168-0.948-2.116-2.116-2.116h-5.924v-40.852h31.996V208.368z"/>
			<path d="M27.712,102.52c-2.808-1.864-5.72-2.284-8.22-1.184c-2.496,1.096-4.156,3.536-4.676,6.868
				c-0.468,3.02,0.068,6.484,1.508,9.756c1.44,3.268,3.636,6.004,6.184,7.692c1.784,1.184,3.612,1.784,5.344,1.784
				c0.996,0,1.964-0.196,2.876-0.6c2.492-1.096,4.152-3.536,4.672-6.868c0.472-3.024-0.064-6.484-1.504-9.756
				C32.456,106.944,30.26,104.212,27.712,102.52z M29.8,121.952c-0.088,0.476-0.356,0.96-0.728,1.452
				c-1.68,0.656-3.508-0.264-4.468-0.9c-1.924-1.28-3.68-3.492-4.816-6.072c-1.152-2.616-1.592-5.332-1.232-7.648
				c0.04-0.248,0.108-0.548,0.188-0.856c-0.02,2.112,0.716,4.228,2.22,5.772c1.18,1.216,2.648,2,4.06,2.756
				c0.66,0.348,1.316,0.7,1.944,1.096C28.544,118.544,30.108,120.22,29.8,121.952z M31.668,119.388
				c-0.016,0.104-0.056,0.24-0.08,0.356c-0.548-1.484-1.696-2.896-3.476-4.02c-0.668-0.424-1.372-0.804-2.076-1.18
				c-1.328-0.708-2.588-1.376-3.532-2.348c-1.924-1.98-2.008-5.304-0.492-7.604c0.116-0.012,0.232-0.072,0.352-0.072
				c1.292,0,2.528,0.664,3.256,1.148c1.952,1.3,3.664,3.452,4.816,6.072C31.588,114.36,32.032,117.072,31.668,119.388z"/>
			<path d="M81.084,200.624h-4.292c-0.348,0-0.672,0.168-0.88,0.448c-0.2,0.284-0.256,0.648-0.144,0.976l6.88,20.564
				c0.144,0.44,0.56,0.736,1.024,0.736h124.44c0.464,0,0.88-0.296,1.024-0.736l6.88-20.564c0.112-0.328,0.056-0.692-0.144-0.976
				c-0.204-0.28-0.532-0.448-0.88-0.448h-1.424c0.128-0.536,0.256-1.068,0.368-1.596c0.676-3.188-0.592-6-3.572-7.916
				c-0.36-0.232-0.736-0.416-1.112-0.6v-71.096c0-1.044-0.844-1.892-1.892-1.892H84.288c-1.044,0-1.892,0.844-1.892,1.892v75.38
				c-0.048,0.06-0.112,0.1-0.16,0.16C81.092,196.432,80.708,198.436,81.084,200.624z M86.18,121.304h119.292v64.984
				c-0.784-1.216-1.756-2.112-2.956-2.6c-0.404-0.16-0.844-0.228-1.28-0.3v-45.692c0-0.596-0.484-1.08-1.08-1.08
				c-0.596,0-1.08,0.484-1.08,1.08v32.252h-32.248v-41.56h7.312c0.596,0,1.08-0.484,1.08-1.08s-0.484-1.08-1.08-1.08h-23.656
				c-0.596,0-1.08,0.484-1.08,1.08s0.484,1.08,1.08,1.08h14.184v41.56h-37.836v-41.56h10.532c0.596,0,1.08-0.484,1.08-1.08
				s-0.484-1.08-1.08-1.08H91.368c-0.596,0-1.08,0.484-1.08,1.08v65.372c-0.9-0.12-1.808-0.196-2.74-0.176
				c-0.48,0.016-0.932,0.084-1.368,0.168V121.304z M199.076,172.108v11.256c-1.404,0.2-2.92,0.744-4.524,1.68
				c-2.66-2.572-5.724-3.68-8.324-2.968c-1.956,0.536-3.388,2.008-4.112,4.2c-4.332-0.576-7.548,1.316-9.128,5.284l-6.16-0.624
				v-18.828H199.076z M164.668,172.1v0.004v15.736c-0.816-1.692-2.204-3.024-4.196-3.764c-3.564-1.32-6.312,0.26-8.58,2.292
				c-2.416-3-5.448-4.2-8.964-3.532c-0.044,0.008-0.084,0.016-0.132,0.024c-1.552-0.916-3.064-1.192-4.516-0.8
				c-1.752,0.472-3.292,1.904-4.58,4.268c-2.872-0.304-5.172,0.384-6.876,2V172.1H164.668z M92.448,169.948v-41.56h32.224v41.56
				H92.448z M124.672,172.104L124.672,172.104v17.908c-1.564-1.776-3.56-2.84-6.02-3.096c-4.364-0.42-7.072,2.348-8.94,4.524
				c-0.68-0.244-1.352-0.52-2.008-0.788c-2.088-0.864-4.056-1.672-6.032-1.372c-1.996,0.304-3.7,1.792-5.2,3.104
				c-0.46,0.4-0.916,0.8-1.364,1.148c-0.652-0.108-1.3-0.24-1.952-0.364c-0.232-0.044-0.472-0.08-0.708-0.124v-20.94H124.672z
				 M83.944,196.284c0.78-1.004,2.056-1.568,3.68-1.62c1.62-0.048,3.336,0.276,5.112,0.628c0.828,0.16,1.656,0.324,2.488,0.452
				c0.284,0.04,0.564-0.028,0.788-0.188c0.616-0.444,1.24-0.988,1.876-1.54c1.344-1.172,2.728-2.384,4.104-2.596
				c1.388-0.204,3.084,0.492,4.884,1.236c0.924,0.38,1.876,0.772,2.852,1.08c0.416,0.132,0.872,0,1.152-0.336
				c2.168-2.568,4.204-4.708,7.54-4.328c2.684,0.276,4.632,1.684,5.96,4.308c0.2,0.392,0.652,0.632,1.048,0.588
				c0.44-0.032,0.812-0.332,0.944-0.748c1.22-3.864,3.628-5.304,7.768-4.644c0.46,0.06,0.928-0.168,1.14-0.592
				c1.072-2.192,2.272-3.48,3.56-3.828c0.948-0.26,2.02,0.008,3.192,0.788c0.26,0.18,0.576,0.228,0.88,0.144
				c0.02-0.004,0.384-0.116,0.404-0.124c3.084-0.568,5.468,0.592,7.528,3.64c0.18,0.264,0.468,0.436,0.788,0.468
				c0.3,0.032,0.636-0.084,0.864-0.308c2.356-2.328,4.48-3.672,7.208-2.656c3.156,1.172,3.704,3.7,3.604,5.612
				c-0.028,0.572,0.4,1.072,0.968,1.132l9.324,0.948c0.508,0.068,0.984-0.26,1.14-0.748c0.836-2.644,2.9-5.556,7.924-4.484
				c0.6,0.108,1.156-0.248,1.284-0.828c0.412-1.944,1.396-3.18,2.84-3.572c1.996-0.544,4.584,0.6,6.788,2.988
				c0.348,0.384,0.936,0.456,1.376,0.176c2.708-1.744,5.036-2.32,6.74-1.628c1.516,0.612,2.596,2.232,3.2,4.824
				c0.08,0.332,0.304,0.604,0.616,0.74c0.416,0.188,0.84,0.356,1.26,0.528c0.88,0.348,1.704,0.684,2.416,1.14
				c2.236,1.436,3.12,3.34,2.628,5.652c-0.144,0.676-0.312,1.364-0.472,2.044H83.256l-0.004-0.012
				C82.872,198.884,83.116,197.348,83.944,196.284z M213.496,202.784l-6.16,18.404H84.448l-6.16-18.404H213.496z"/>
			<path d="M240.368,159.26h21.692c0.448,0,0.812-0.364,0.812-0.812v-7.144c0-0.448-0.364-0.812-0.812-0.812h-21.692
				c-0.448,0-0.812,0.364-0.812,0.812v7.144C239.556,158.896,239.92,159.26,240.368,159.26z M241.176,152.116h20.068v5.524h-20.068
				V152.116z"/>
		</g>
	</g>
</g>
<g>
</g>
<g>
</g>
<g>
</g>
<g>
</g>
<g>
</g>
<g>
</g>
<g>
</g>
<g>
</g>
<g>
</g>
<g>
</g>
<g>
</g>
<g>
</g>
<g>
</g>
<g>
</g>
<g>
</g>
</svg>
