<?xml version="1.0" encoding="iso-8859-1"?>
<!-- Generator: Adobe Illustrator 19.1.0, SVG Export Plug-In . SVG Version: 6.00 Build 0)  -->
<svg version="1.1" id="Capa_1" xmlns="http://www.w3.org/2000/svg" xmlns:xlink="http://www.w3.org/1999/xlink" x="0px" y="0px"
	 viewBox="0 0 512 512" style="enable-background:new 0 0 512 512;" xml:space="preserve">
<g>
	<g>
		<path style="fill:#8B8996;" d="M404,200h-32c-8.589,0-16.727,1.934-24,5.389l0.002,50.592C348.013,242.756,358.773,232,372,232h32
			c13.234,0,24,10.766,24,24v96c0,13.233-10.766,24-24,24h-32c-13.212,0-23.958-10.732-23.994-23.937l0.002,50.552
			C355.281,406.068,363.414,408,372,408h32c30.928,0,56-25.072,56-56v-96C460,225.072,434.928,200,404,200z"/>
	</g>
	<g>
		<path style="fill:#5C546A;" d="M316,464c-4.422,0-8,3.578-8,8H100c0-4.422-3.578-8-8-8s-8,3.578-8,8c0,22.055,17.945,40,40,40h160
			c22.055,0,40-17.945,40-40C324,467.578,320.422,464,316,464z"/>
	</g>
	<g>
		<path style="fill:#B9BBC1;" d="M340,144H68c-8.82,0-16,7.18-16,16v280c0,22.055,17.945,40,40,40h224c22.055,0,40-17.945,40-40V160
			C356,151.18,348.82,144,340,144z"/>
	</g>
	<g>
		<g>
			<path style="fill:#D8DCE1;" d="M196,128c-4.422,0-8-3.578-8-8c0-12.289,5.508-18.711,9.93-23.867
				c3.656-4.258,6.07-7.078,6.07-13.445c0-6.375-2.414-9.195-6.078-13.469C193.5,64.062,188,57.641,188,45.344
				s5.5-18.719,9.922-23.875C201.586,17.195,204,14.375,204,8c0-4.422,3.578-8,8-8s8,3.578,8,8c0,12.297-5.5,18.719-9.922,23.875
				C206.414,36.148,204,38.969,204,45.344s2.414,9.195,6.078,13.469C214.5,63.969,220,70.391,220,82.687
				c0,12.289-5.508,18.711-9.93,23.867c-3.656,4.258-6.07,7.078-6.07,13.445C204,124.422,200.422,128,196,128z"/>
		</g>
	</g>
	<g>
		<g>
			<path style="fill:#D8DCE1;" d="M236,128c-4.422,0-8-3.578-8-8c0-12.289,5.508-18.711,9.93-23.867
				c3.656-4.258,6.07-7.078,6.07-13.445c0-6.375-2.414-9.195-6.078-13.469C233.5,64.062,228,57.641,228,45.344c0-4.422,3.578-8,8-8
				c4.422,0,8,3.578,8,8c0,6.375,2.414,9.195,6.078,13.469C254.5,63.969,260,70.391,260,82.687c0,12.289-5.508,18.711-9.93,23.867
				c-3.656,4.258-6.07,7.078-6.07,13.445C244,124.422,240.422,128,236,128z"/>
		</g>
	</g>
	<g>
		<g>
			<path style="fill:#D8DCE1;" d="M156,128c-4.422,0-8-3.578-8-8c0-12.289,5.508-18.711,9.93-23.867
				c3.656-4.258,6.07-7.078,6.07-13.445c0-6.375-2.414-9.195-6.078-13.469C153.5,64.062,148,57.641,148,45.344c0-4.422,3.578-8,8-8
				s8,3.578,8,8c0,6.375,2.414,9.195,6.078,13.469C174.5,63.969,180,70.391,180,82.687c0,12.289-5.508,18.711-9.93,23.867
				c-3.656,4.258-6.07,7.078-6.07,13.445C164,124.422,160.422,128,156,128z"/>
		</g>
	</g>
	<g>
		<path style="fill:#8B8996;" d="M204,144H68c-8.82,0-16,7.18-16,16v280c0,22.055,17.945,40,40,40h112V144z"/>
	</g>
</g>
<g>
</g>
<g>
</g>
<g>
</g>
<g>
</g>
<g>
</g>
<g>
</g>
<g>
</g>
<g>
</g>
<g>
</g>
<g>
</g>
<g>
</g>
<g>
</g>
<g>
</g>
<g>
</g>
<g>
</g>
</svg>
