<?xml version="1.0" ?><svg width="108px" height="108px" viewBox="0 0 108 108" id="Layeri" xmlns="http://www.w3.org/2000/svg" xmlns:xlink="http://www.w3.org/1999/xlink"><defs><style>.cls-1{fill:none;}.cls-2{clip-path:url(#clip-path);}</style><clipPath id="clip-path"><rect class="cls-1" height="104" width="104" x="2" y="2"/></clipPath></defs><title/><g class="cls-2"><g id="Line"><path d="M85.5,2h-63a7,7,0,0,0,0,14h.61q2.3,41.22,4.58,82.44a8,8,0,0,0,8,7.56H72.32a8,8,0,0,0,8-7.56Q82.61,57.22,84.89,16h.61a7,7,0,0,0,0-14ZM76.32,98.22a4,4,0,0,1-4,3.78H35.68a4,4,0,0,1-4-3.78L30.56,78H77.44ZM77.67,74H30.33L28.39,39H79.61ZM85.5,12H48v4H80.89L79.83,35H28.17L27.11,16H36V12H22.5a3,3,0,0,1,0-6h63a3,3,0,0,1,0,6Z"/><path d="M24.33,38.11A2,2,0,0,1,24,37a2,2,0,0,1,.22-.91Z"/><path d="M84,37a2,2,0,0,1-.33,1.11l.11-2A2,2,0,0,1,84,37Z"/><path d="M42.66,64.3c0,.11-.08.21-.12.3-2.8-4.3-1.41-11.1,3.52-16,4.32-4.32,10.06-5.92,14.31-4.37a21.45,21.45,0,0,0-2.16,4.55,12.17,12.17,0,0,1-2.15,4.17,12.17,12.17,0,0,1-4.17,2.15A16.17,16.17,0,0,0,46,58.36,16.17,16.17,0,0,0,42.66,64.3Z"/><path d="M60.91,63.42c-4.3,4.3-10,5.9-14.26,4.39.25-.58.48-1.17.69-1.74a12.17,12.17,0,0,1,2.15-4.17,12.17,12.17,0,0,1,4.17-2.15,16.17,16.17,0,0,0,5.94-3.3,16.17,16.17,0,0,0,3.3-5.94,19.87,19.87,0,0,1,1.45-3.26C67.26,51.54,65.9,58.44,60.91,63.42Z"/><rect height="4" rx="2" ry="2" width="4" x="40" y="12"/></g></g></svg>