<?xml version="1.0" encoding="iso-8859-1"?>
<!-- Generator: Adobe Illustrator 19.0.0, SVG Export Plug-In . SVG Version: 6.00 Build 0)  -->
<svg version="1.1" id="Layer_1" xmlns="http://www.w3.org/2000/svg" xmlns:xlink="http://www.w3.org/1999/xlink" x="0px" y="0px"
	 viewBox="0 0 512 512" style="enable-background:new 0 0 512 512;" xml:space="preserve">
<g>
	<path style="fill:#FFFFFF;" d="M242.506,417.848c10.13,0,18.274,8.149,18.274,18.273c0,10.126-8.143,18.275-18.274,18.275
		s-18.274-8.149-18.274-18.275C224.232,425.997,232.376,417.848,242.506,417.848z"/>
	<path style="fill:#FFFFFF;" d="M305.157,344.757c10.125,0,18.273,8.146,18.273,18.273s-8.147,18.273-18.273,18.273
		c-10.126,0-18.274-8.146-18.274-18.273C286.883,352.903,295.031,344.757,305.157,344.757z"/>
	<path style="fill:#FFFFFF;" d="M221.622,292.545c10.132,0,18.274,8.149,18.274,18.275s-8.142,18.273-18.274,18.273
		c-10.13,0-18.274-8.146-18.274-18.273C203.348,300.693,211.491,292.545,221.622,292.545z"/>
</g>
<path style="fill:#FFD248;" d="M114.593,94.149c0-46.151,37.383-83.533,83.534-83.533c46.153,0,83.535,37.383,83.535,83.533h-83.535
	H114.593z"/>
<path style="fill:#F1F2F2;" d="M365.198,135.917v114.862c-34.772,0-34.772-20.885-69.647-20.885
	c-34.772,0-34.772,20.885-69.647,20.885c-34.772,0-34.772-20.885-69.545-20.885v-93.977h41.768H323.43H365.198z"/>
<path style="fill:#31C0D8;" d="M365.198,250.779v229.719c0,11.482-9.402,20.885-20.884,20.885h-167.07
	c-11.486,0-20.884-9.402-20.884-20.885V229.895c34.772,0,34.772,20.885,69.545,20.885c34.875,0,34.875-20.885,69.647-20.885
	C330.426,229.895,330.426,250.779,365.198,250.779z M323.43,363.029c0-10.126-8.147-18.273-18.273-18.273
	c-10.126,0-18.274,8.146-18.274,18.273s8.147,18.273,18.274,18.273C315.282,381.302,323.43,373.155,323.43,363.029z M260.78,436.121
	c0-10.124-8.143-18.273-18.274-18.273s-18.274,8.149-18.274,18.273c0,10.126,8.143,18.275,18.274,18.275
	S260.78,446.247,260.78,436.121z M239.896,310.82c0-10.126-8.142-18.275-18.274-18.275c-10.13,0-18.274,8.149-18.274,18.275
	s8.143,18.273,18.274,18.273C231.753,329.092,239.896,320.946,239.896,310.82z"/>
<g>
	<path style="fill:#231F20;" d="M365.198,125.301h-31.153V94.308l73.977-54.249l-12.555-17.122l-78.314,57.43
		c-2.727,2-4.338,5.179-4.338,8.56v36.373H208.744v-20.537h72.92c5.863,0,10.616-4.754,10.616-10.616
		C292.278,42.235,250.043,0,198.128,0c-51.915,0-94.15,42.235-94.15,94.149c0,5.862,4.753,10.616,10.616,10.616h72.919v20.537
		h-31.153c-5.863,0-10.616,4.754-10.616,10.616v344.582c0,17.369,14.13,31.501,31.5,31.501h167.07c17.369,0,31.5-14.13,31.5-31.501
		V135.917C375.814,130.055,371.061,125.301,365.198,125.301z M129.983,68.22h99.47V46.989h-86.876
		c13.385-15.743,33.316-25.758,55.55-25.758c36.603,0,66.994,27.108,72.149,62.302H125.979
		C126.758,78.222,128.12,73.098,129.983,68.22z M354.582,146.532v92.732c-7.679-1.435-12.745-4.455-18.691-8.021
		c-9.352-5.608-19.951-11.965-40.34-11.965c-20.313,0-30.891,6.345-40.226,11.943c-8.331,4.996-14.911,8.943-29.421,8.943
		c-14.443,0-21.002-3.939-29.306-8.927c-7.554-4.537-15.927-9.561-29.623-11.312v-73.392H354.582z M344.314,490.769h-167.07
		c-5.662,0-10.268-4.607-10.268-10.27V241.407c7.684,1.437,12.748,4.46,18.691,8.029c9.332,5.605,19.908,11.958,40.238,11.958
		c20.389,0,30.989-6.357,40.341-11.965c8.309-4.983,14.871-8.919,29.305-8.919c14.51,0,21.09,3.947,29.42,8.943
		c7.553,4.531,15.927,9.547,29.61,11.297V480.5C354.582,486.162,349.975,490.769,344.314,490.769z"/>
	<path style="fill:#231F20;" d="M250.511,310.82c0-15.93-12.96-28.89-28.889-28.89s-28.889,12.961-28.889,28.89
		c0,15.929,12.96,28.888,28.889,28.888C237.552,339.708,250.511,326.748,250.511,310.82z M213.964,310.82
		c0-4.295,3.364-7.659,7.658-7.659s7.658,3.364,7.658,7.659c0,4.294-3.364,7.657-7.658,7.657
		C217.328,318.477,213.964,315.114,213.964,310.82z"/>
	<path style="fill:#231F20;" d="M305.157,334.141c-15.93,0-28.889,12.96-28.889,28.888s12.96,28.888,28.889,28.888
		c15.929,0,28.888-12.96,28.888-28.888C334.045,347.1,321.087,334.141,305.157,334.141z M305.157,370.686
		c-4.294,0-7.658-3.363-7.658-7.657s3.364-7.657,7.658-7.657c4.293,0,7.657,3.363,7.657,7.657S309.451,370.686,305.157,370.686z"/>
	<path style="fill:#231F20;" d="M242.506,407.233c-15.93,0-28.889,12.96-28.889,28.888c0,15.93,12.96,28.89,28.889,28.89
		s28.889-12.961,28.889-28.89C271.395,420.192,258.436,407.233,242.506,407.233z M242.506,443.78c-4.294,0-7.658-3.364-7.658-7.659
		c0-4.294,3.364-7.657,7.658-7.657s7.658,3.363,7.658,7.657C250.164,440.416,246.8,443.78,242.506,443.78z"/>
	<path style="fill:#231F20;" d="M203.522,183.08h15.489v-21.231h-26.105c-5.863,0-10.616,4.753-10.616,10.616v20.883h21.231V183.08z
		"/>
</g>
<g>
</g>
<g>
</g>
<g>
</g>
<g>
</g>
<g>
</g>
<g>
</g>
<g>
</g>
<g>
</g>
<g>
</g>
<g>
</g>
<g>
</g>
<g>
</g>
<g>
</g>
<g>
</g>
<g>
</g>
</svg>
