<?xml version="1.0" encoding="UTF-8" standalone="no"?>
<!-- Generator: Adobe Illustrator 19.0.0, SVG Export Plug-In . SVG Version: 6.00 Build 0)  -->

<svg
   version="1.1"
   id="Capa_1"
   x="0px"
   y="0px"
   viewBox="0 0 490.4 490.4"
   style="enable-background:new 0 0 490.4 490.4;"
   xml:space="preserve"
   sodipodi:docname="heart_icon_red.svg"
   inkscape:version="1.2 (dc2aeda, 2022-05-15)"
   xmlns:inkscape="http://www.inkscape.org/namespaces/inkscape"
   xmlns:sodipodi="http://sodipodi.sourceforge.net/DTD/sodipodi-0.dtd"
   xmlns="http://www.w3.org/2000/svg"
   xmlns:svg="http://www.w3.org/2000/svg"><defs
   id="defs11732" /><sodipodi:namedview
   id="namedview11730"
   pagecolor="#ffffff"
   bordercolor="#000000"
   borderopacity="0.25"
   inkscape:showpageshadow="2"
   inkscape:pageopacity="0.0"
   inkscape:pagecheckerboard="0"
   inkscape:deskcolor="#d1d1d1"
   showgrid="false"
   inkscape:zoom="0.78630423"
   inkscape:cx="315.39955"
   inkscape:cy="302.04594"
   inkscape:window-width="1440"
   inkscape:window-height="795"
   inkscape:window-x="0"
   inkscape:window-y="25"
   inkscape:window-maximized="1"
   inkscape:current-layer="Capa_1" />
<g
   id="g11697">
	<g
   id="g11695">
		<path
   d="M222.5,453.7c6.1,6.1,14.3,9.5,22.9,9.5c8.5,0,16.9-3.5,22.9-9.5L448,274c27.3-27.3,42.3-63.6,42.4-102.1    c0-38.6-15-74.9-42.3-102.2S384.6,27.4,346,27.4c-37.9,0-73.6,14.5-100.7,40.9c-27.2-26.5-63-41.1-101-41.1    c-38.5,0-74.7,15-102,42.2C15,96.7,0,133,0,171.6c0,38.5,15.1,74.8,42.4,102.1L222.5,453.7z M59.7,86.8    c22.6-22.6,52.7-35.1,84.7-35.1s62.2,12.5,84.9,35.2l7.4,7.4c2.3,2.3,5.4,3.6,8.7,3.6l0,0c3.2,0,6.4-1.3,8.7-3.6l7.2-7.2    c22.7-22.7,52.8-35.2,84.9-35.2c32,0,62.1,12.5,84.7,35.1c22.7,22.7,35.1,52.8,35.1,84.8s-12.5,62.1-35.2,84.8L251,436.4    c-2.9,2.9-8.2,2.9-11.2,0l-180-180c-22.7-22.7-35.2-52.8-35.2-84.8C24.6,139.6,37.1,109.5,59.7,86.8z"
   id="path11693" />
	</g>
</g>
<g
   id="g11699">
</g>
<g
   id="g11701">
</g>
<g
   id="g11703">
</g>
<g
   id="g11705">
</g>
<g
   id="g11707">
</g>
<g
   id="g11709">
</g>
<g
   id="g11711">
</g>
<g
   id="g11713">
</g>
<g
   id="g11715">
</g>
<g
   id="g11717">
</g>
<g
   id="g11719">
</g>
<g
   id="g11721">
</g>
<g
   id="g11723">
</g>
<g
   id="g11725">
</g>
<g
   id="g11727">
</g>
<circle
   style="fill:#ff0000;stroke:#ff0000;stroke-width:9.752"
   id="path12266"
   cx="146.61298"
   cy="170.52409"
   r="117.66792" /><circle
   style="fill:#ff0000;stroke:#ff0000;stroke-width:9.752"
   id="path12266-2"
   cx="344.82364"
   cy="171.15335"
   r="117.66792" /><rect
   style="fill:#ff0000;stroke:#ff0000;stroke-width:8.72576"
   id="rect12352"
   width="148.26846"
   height="240.13753"
   x="-134.41066"
   y="231.09065"
   ry="0"
   transform="rotate(-44.981475)" /><rect
   style="fill:#ff0000;stroke:#ff0000;stroke-width:8.72576"
   id="rect12352-0"
   width="148.26846"
   height="240.13753"
   x="-481.9812"
   y="-115.16999"
   ry="0"
   transform="matrix(-0.70624376,-0.70796875,-0.70796875,0.70624376,0,0)" /><ellipse
   style="fill:#ff0000;stroke:#ff0000;stroke-width:8.16416;stroke-dasharray:none"
   id="path13204"
   cx="245.64609"
   cy="374.45505"
   rx="14.376578"
   ry="60.268936" /></svg>
