<?xml version="1.0" encoding="iso-8859-1"?>
<!-- Generator: Adobe Illustrator 19.0.0, SVG Export Plug-In . SVG Version: 6.00 Build 0)  -->
<svg version="1.1" id="Layer_1" xmlns="http://www.w3.org/2000/svg" xmlns:xlink="http://www.w3.org/1999/xlink" x="0px" y="0px"
	 viewBox="0 0 457.487 457.487" style="enable-background:new 0 0 457.487 457.487;" xml:space="preserve">
<g id="XMLID_530_">
	<g>
		<path d="M228.743,0C102.318,0,0,102.306,0,228.743c0,126.426,102.306,228.744,228.743,228.744
			c126.426,0,228.743-102.306,228.743-228.744C457.487,102.51,355.174,0,228.743,0z M78.768,167.502
			c0-10.613,8.604-19.217,19.217-19.217h74.31L285.17,67.326c5.625-4.035,13.035-4.584,19.194-1.422s10.031,9.503,10.031,16.425
			v4.193L181.708,219.211l-89.585,89.585c-7.744-2.48-13.354-9.731-13.354-18.298V167.502z M314.396,291.322v84.349
			c0,6.923-3.872,13.264-10.031,16.426s-13.569,2.613-19.194-1.422L190.956,323.1l123.44-123.44l26.893-26.893
			c20.956,10.04,35.43,31.445,35.43,56.234C376.719,263.42,348.817,291.322,314.396,291.322z M88.448,383.181
			c-4.935-4.487-9.655-9.207-14.143-14.142L369.039,74.305c4.935,4.487,9.655,9.207,14.142,14.143L88.448,383.181z"/>
	</g>
</g>
<g>
</g>
<g>
</g>
<g>
</g>
<g>
</g>
<g>
</g>
<g>
</g>
<g>
</g>
<g>
</g>
<g>
</g>
<g>
</g>
<g>
</g>
<g>
</g>
<g>
</g>
<g>
</g>
<g>
</g>
</svg>
