<?xml version="1.0" encoding="iso-8859-1"?>
<!-- Generator: Adobe Illustrator 19.0.0, SVG Export Plug-In . SVG Version: 6.00 Build 0)  -->
<svg version="1.1" id="Layer_1" xmlns="http://www.w3.org/2000/svg" xmlns:xlink="http://www.w3.org/1999/xlink" x="0px" y="0px"
	 viewBox="0 0 512 512" style="enable-background:new 0 0 512 512;" xml:space="preserve">
<g transform="translate(1 1)">
	<path style="fill:#CCCCCC;" d="M502.467,254.893c0,136.533-110.933,247.467-247.467,247.467S7.533,391.427,7.533,254.893
		S118.467,7.427,255,7.427S502.467,118.36,502.467,254.893"/>
	<path style="fill:#E2E3E5;" d="M476.867,254.893c0,136.533-98.987,247.467-221.867,247.467S33.133,391.427,33.133,254.893
		S132.12,7.427,255,7.427S476.867,118.36,476.867,254.893"/>
	<path style="fill:#FFFFFF;" d="M33.133,254.893C33.133,118.36,132.12,7.427,255,7.427C118.467,7.427,7.533,118.36,7.533,254.893
		S118.467,502.36,255,502.36C132.12,502.36,33.133,391.427,33.133,254.893"/>
	<path style="fill:#E0E0E0;" d="M198.68,178.093h-70.827c-10.24,0-17.92,7.68-17.92,17.92V305.24c0,10.24,7.68,17.92,17.92,17.92
		h70.827c3.413,0,5.973,0.853,9.387,2.56L321.56,431.533c11.947,6.827,27.307-1.707,27.307-15.36V85.08
		c0-13.653-15.36-22.187-27.307-15.36L208.067,175.533C205.507,177.24,202.093,178.093,198.68,178.093"/>
	<path style="fill:#F0F0F0;" d="M198.68,178.093h-70.827c-10.24,0-17.92,7.68-17.92,17.92V305.24c0,10.24,7.68,17.92,17.92,17.92
		h70.827c3.413,0,5.973,0.853,9.387-8.533L306.2,420.44c11.947,17.92,17.067,9.387,17.067-4.267V85.08
		c0-13.653-5.12-7.68-17.067-0.853l-98.133,91.307C205.507,177.24,202.093,178.093,198.68,178.093"/>
	<g>
		<path style="fill:#B6B6B6;" d="M330.947,442.627c-4.267,0-9.387-0.853-13.653-3.413c-0.853,0-0.853-0.853-1.707-0.853
			l-112.64-105.813c-0.853-0.853-2.56-0.853-4.267-0.853h-70.827c-14.507,0-26.453-11.947-26.453-26.453V196.013
			c0-14.507,11.947-26.453,26.453-26.453h70.827c1.707,0,2.56,0,4.267-0.853l112.64-104.96c0.853,0,0.853-0.853,1.707-0.853
			c8.533-5.12,17.92-5.12,26.453,0c8.533,4.267,13.653,12.8,13.653,22.187v331.093c0,9.387-5.12,17.92-13.653,23.04
			C340.333,441.773,335.213,442.627,330.947,442.627z M326.68,424.707c4.267,1.707,7.68,0.853,8.533,0
			c1.707-0.853,5.12-3.413,5.12-8.533V85.08c0-5.12-3.413-7.68-5.12-8.533c-1.707-0.853-5.12-2.56-8.533,0l-112.64,104.96
			c-0.853,0-0.853,0.853-1.707,0.853c-4.267,2.56-8.533,3.413-13.653,3.413h-70.827c-5.12,0-9.387,4.267-9.387,9.387v109.227
			c0,5.12,4.267,9.387,9.387,9.387h70.827c5.12,0,9.387,0.853,13.653,3.413c0.853,0,0.853,0.853,1.707,0.853L326.68,424.707z"/>
		<path style="fill:#B6B6B6;" d="M255,510.893c-65.707,0-131.413-24.747-180.907-75.093C25.453,387.16-1,323.16-1,254.893
			S25.453,122.627,74.093,73.987c99.84-99.84,261.973-99.84,361.813,0C484.547,122.627,511,186.627,511,254.893
			S484.547,387.16,435.907,435.8C386.413,486.147,320.707,510.893,255,510.893z M255,15.96c-61.44,0-122.027,23.04-168.96,69.973
			c-45.227,45.227-69.973,104.96-69.973,168.96s24.747,123.733,69.973,168.96c93.013,93.013,244.907,93.013,337.92,0
			c45.227-45.227,69.973-104.96,69.973-168.96S469.187,131.16,423.96,85.933l0,0C377.027,39,316.44,15.96,255,15.96z"/>
		<path style="fill:#B6B6B6;" d="M80.067,438.36c-2.56,0-4.267-0.853-5.973-2.56c-3.413-3.413-3.413-8.533,0-11.947L423.96,73.987
			c3.413-3.413,8.533-3.413,11.947,0c3.413,3.413,3.413,8.533,0,11.947L86.04,435.8C84.333,437.507,82.627,438.36,80.067,438.36z"/>
	</g>
</g>
<g>
</g>
<g>
</g>
<g>
</g>
<g>
</g>
<g>
</g>
<g>
</g>
<g>
</g>
<g>
</g>
<g>
</g>
<g>
</g>
<g>
</g>
<g>
</g>
<g>
</g>
<g>
</g>
<g>
</g>
</svg>
