<?xml version="1.0" encoding="iso-8859-1"?>
<!-- Generator: Adobe Illustrator 19.0.0, SVG Export Plug-In . SVG Version: 6.00 Build 0)  -->
<svg version="1.1" id="Layer_1" xmlns="http://www.w3.org/2000/svg" xmlns:xlink="http://www.w3.org/1999/xlink" x="0px" y="0px"
	 viewBox="0 0 457.487 457.487" style="enable-background:new 0 0 457.487 457.487;" xml:space="preserve">
<g id="XMLID_3_">
	<g>
		<g>
			<path d="M349.214,164.842L334.156,179.9c19.61,7.558,33.562,26.603,33.562,48.844c0,25.431-18.239,46.683-42.322,51.364V188.66
				l-20,20v82.406v84.349c0,3.189-1.762,6.074-4.597,7.529c-2.774,1.423-6.174,1.233-8.8-0.652
				c-0.034-0.024-0.067-0.048-0.102-0.071l-94.236-65.827l-14.363,14.363l97.103,67.829c8.998,6.421,20.419,6.827,29.531,2.15
				c9.538-4.897,15.463-14.6,15.463-25.322v-75.056c35.161-4.887,62.322-35.131,62.322-71.615
				C387.719,201.076,372.096,177,349.214,164.842z"/>
			<path d="M324.779,76.14c-1.747-8.278-7.106-15.416-14.846-19.39c-9.11-4.676-20.529-4.271-29.53,2.15l-113.278,79.128H79.769
				c-5.522,0-10,4.477-10,10v161.43c0,5.523,4.478,10,10,10h1.691l20-20H89.769v-141.43h70.502v82.619l20-20V153.24l111.627-77.974
				c0.034-0.024,0.067-0.048,0.102-0.072c2.678-1.921,6.082-2.047,8.799-0.652c2.836,1.456,4.598,4.341,4.598,7.53v13.45
				L324.779,76.14z"/>
			<path d="M228.743,0C102.318,0,0.001,102.306,0.001,228.743c0,61.207,23.869,118.615,66.991,161.74
				c0.002,0.002,0.004,0.004,0.006,0.007c0.002,0.002,0.005,0.004,0.007,0.006c43.11,43.106,100.511,66.991,161.739,66.991
				c126.426,0,228.743-102.306,228.743-228.744C457.487,102.085,354.976,0,228.743,0z M20.001,228.743
				C20.001,113.642,113.643,20,228.743,20c52.595,0,102.175,19.644,140.295,54.305L74.307,369.039
				C39.68,330.956,20.001,281.393,20.001,228.743z M228.743,437.487c-52.594,0-102.174-19.644-140.295-54.305L383.182,88.448
				c34.696,38.158,54.306,87.751,54.306,140.295C437.487,343.845,343.846,437.487,228.743,437.487z"/>
		</g>
	</g>
</g>
<g>
</g>
<g>
</g>
<g>
</g>
<g>
</g>
<g>
</g>
<g>
</g>
<g>
</g>
<g>
</g>
<g>
</g>
<g>
</g>
<g>
</g>
<g>
</g>
<g>
</g>
<g>
</g>
<g>
</g>
</svg>
