<?xml version="1.0" encoding="iso-8859-1"?>
<!-- Generator: Adobe Illustrator 19.0.0, SVG Export Plug-In . SVG Version: 6.00 Build 0)  -->
<svg version="1.1" id="Layer_1" xmlns="http://www.w3.org/2000/svg" xmlns:xlink="http://www.w3.org/1999/xlink" x="0px" y="0px"
	 viewBox="0 0 512 512" style="enable-background:new 0 0 512 512;" xml:space="preserve">
<g>
	<g>
		<path d="M256,0C114.618,0,0,114.618,0,256s114.618,256,256,256s256-114.618,256-256S397.382,0,256,0z M256,42.667
			c51.226,0,98.23,18.063,135.006,48.158l-29.681,29.681c-4.425-11.908-19.059-17.951-30.977-10.798l-99.072,59.456
			c-1.636,0.976-3.538,1.503-5.449,1.503h-76.501c-23.558,0-42.667,19.109-42.667,42.667v85.333
			c0,20.802,14.903,38.126,34.609,41.896l-50.443,50.443C60.73,354.23,42.667,307.226,42.667,256
			C42.667,138.182,138.182,42.667,256,42.667z M183.163,298.667h-33.839v-85.333h76.501c9.627,0,19.079-2.618,27.356-7.556
			l57.195-34.325L183.163,298.667z M319.991,222.178v124.139l-66.761-40.065c-3.799-2.266-7.834-4.038-12.012-5.3L319.991,222.178z
			 M256,469.333c-51.226,0-98.23-18.063-135.006-48.158l79.842-79.842h24.99c1.911,0,3.813,0.527,5.497,1.532l99.024,59.427
			c14.219,8.533,32.311-1.709,32.311-18.292V179.512l58.517-58.517c30.095,36.776,48.158,83.78,48.158,135.006
			C469.333,373.818,373.818,469.333,256,469.333z"/>
	</g>
</g>
<g>
</g>
<g>
</g>
<g>
</g>
<g>
</g>
<g>
</g>
<g>
</g>
<g>
</g>
<g>
</g>
<g>
</g>
<g>
</g>
<g>
</g>
<g>
</g>
<g>
</g>
<g>
</g>
<g>
</g>
</svg>
