<svg xmlns="http://www.w3.org/2000/svg" xmlns:xlink="http://www.w3.org/1999/xlink" version="1.1" width="256" height="256" viewBox="0 0 256 256" xml:space="preserve">
<desc>Created with Fabric.js 1.7.22</desc>
<defs>
</defs>
<g transform="translate(128 128) scale(0.72 0.72)" style="">
	<g style="stroke: none; stroke-width: 0; stroke-dasharray: none; stroke-linecap: butt; stroke-linejoin: miter; stroke-miterlimit: 10; fill: none; fill-rule: nonzero; opacity: 1;" transform="translate(-175.05 -175.05000000000004) scale(3.89 3.89)" >
	<path d="M 73.304 8.725 h -6.152 V 19.05 v 1.484 v 5.093 c 0 0.819 0.664 1.484 1.484 1.484 s 1.484 -0.664 1.484 -1.484 v -5.093 h 3.185 c 3.119 0 5.656 -2.537 5.656 -5.655 V 14.38 C 78.96 11.262 76.423 8.725 73.304 8.725 z M 75.993 14.878 c 0 1.483 -1.206 2.688 -2.689 2.688 h -3.185 v -5.874 h 3.185 c 1.483 0 2.689 1.206 2.689 2.688 V 14.878 z" style="stroke: none; stroke-width: 1; stroke-dasharray: none; stroke-linecap: butt; stroke-linejoin: miter; stroke-miterlimit: 10; fill: rgb(0,0,0); fill-rule: nonzero; opacity: 1;" transform=" matrix(1 0 0 1 0 0) " stroke-linecap="round" />
	<path d="M 18.504 73.806 h -7.678 c -2.232 0 -4.048 -1.816 -4.048 -4.048 v -2.156 c 0 -2.232 1.816 -4.048 4.048 -4.048 h 7.678 c 2.232 0 4.048 1.816 4.048 4.048 v 2.156 C 22.552 71.99 20.736 73.806 18.504 73.806 z M 10.826 66.522 c -0.596 0 -1.081 0.485 -1.081 1.081 v 2.156 c 0 0.596 0.485 1.081 1.081 1.081 h 7.678 c 0.596 0 1.081 -0.485 1.081 -1.081 v -2.156 c 0 -0.596 -0.485 -1.081 -1.081 -1.081 H 10.826 z" style="stroke: none; stroke-width: 1; stroke-dasharray: none; stroke-linecap: butt; stroke-linejoin: miter; stroke-miterlimit: 10; fill: rgb(0,0,0); fill-rule: nonzero; opacity: 1;" transform=" matrix(1 0 0 1 0 0) " stroke-linecap="round" />
	<path d="M 53.116 73.806 h -7.678 c -2.232 0 -4.048 -1.816 -4.048 -4.048 v -2.156 c 0 -2.232 1.816 -4.048 4.048 -4.048 h 7.678 c 2.232 0 4.049 1.816 4.049 4.048 v 2.156 C 57.164 71.99 55.348 73.806 53.116 73.806 z M 45.438 66.522 c -0.596 0 -1.081 0.485 -1.081 1.081 v 2.156 c 0 0.596 0.485 1.081 1.081 1.081 h 7.678 c 0.597 0 1.082 -0.485 1.082 -1.081 v -2.156 c 0 -0.596 -0.485 -1.081 -1.082 -1.081 H 45.438 z" style="stroke: none; stroke-width: 1; stroke-dasharray: none; stroke-linecap: butt; stroke-linejoin: miter; stroke-miterlimit: 10; fill: rgb(0,0,0); fill-rule: nonzero; opacity: 1;" transform=" matrix(1 0 0 1 0 0) " stroke-linecap="round" />
	<path d="M 36.542 70.164 H 27.4 c -0.82 0 -1.484 -0.664 -1.484 -1.484 s 0.664 -1.484 1.484 -1.484 h 9.143 c 0.82 0 1.484 0.664 1.484 1.484 S 37.362 70.164 36.542 70.164 z" style="stroke: none; stroke-width: 1; stroke-dasharray: none; stroke-linecap: butt; stroke-linejoin: miter; stroke-miterlimit: 10; fill: rgb(0,0,0); fill-rule: nonzero; opacity: 1;" transform=" matrix(1 0 0 1 0 0) " stroke-linecap="round" />
	<path d="M 62.669 63.318 l -2.452 -3.894 c -0.636 -1.01 -1.622 -1.704 -2.747 -1.975 l -5.314 -13.674 c -0.732 -1.884 -2.582 -3.15 -4.602 -3.15 H 16.388 c -2.052 0 -3.858 1.236 -4.602 3.149 L 6.473 57.448 c -1.126 0.272 -2.112 0.966 -2.748 1.975 l -2.453 3.895 c -0.452 0.721 -0.692 1.551 -0.692 2.4 v 6.26 v 3.054 v 9.83 C 0.581 87.696 2.885 90 5.718 90 h 7.115 c 2.833 0 5.138 -2.304 5.138 -5.137 v -5.325 h 28.001 v 5.325 c 0 2.833 2.305 5.137 5.138 5.137 h 7.114 c 2.833 0 5.137 -2.304 5.137 -5.137 v -9.83 v -3.054 v -6.26 C 63.361 64.867 63.122 64.037 62.669 63.318 z M 14.552 44.848 c 0.297 -0.763 1.018 -1.257 1.837 -1.257 h 31.165 c 0.806 0 1.544 0.505 1.836 1.257 l 4.846 12.47 h -4.567 c -0.717 -4.619 -4.71 -8.17 -9.527 -8.17 c -4.817 0 -8.81 3.551 -9.527 8.17 H 9.706 L 14.552 44.848 z M 46.656 57.318 H 33.626 c 0.677 -2.974 3.338 -5.203 6.515 -5.203 C 43.317 52.115 45.978 54.344 46.656 57.318 z M 15.003 84.863 c 0 1.197 -0.974 2.17 -2.171 2.17 H 5.718 c -1.197 0 -2.17 -0.974 -2.17 -2.17 V 79.25 c 0.482 0.177 0.996 0.288 1.539 0.288 h 9.917 V 84.863 z M 58.224 87.033 H 51.11 c -1.198 0 -2.171 -0.974 -2.171 -2.17 v -5.325 h 9.917 c 0.543 0 1.056 -0.112 1.539 -0.288 v 5.613 C 60.394 86.059 59.421 87.033 58.224 87.033 z M 60.394 75.033 c 0 0.848 -0.691 1.539 -1.539 1.539 H 5.086 c -0.848 0 -1.539 -0.691 -1.539 -1.539 v -3.054 v -6.26 c 0 -0.291 0.082 -0.575 0.237 -0.821 l 2.452 -3.894 c 0.283 -0.45 0.77 -0.719 1.302 -0.719 h 0.034 c 0.005 0 0.01 0 0.015 0 h 48.816 c 0.532 0 1.019 0.268 1.302 0.719 l 2.452 3.895 c 0.155 0.245 0.237 0.528 0.237 0.82 v 6.26 V 75.033 z" style="stroke: none; stroke-width: 1; stroke-dasharray: none; stroke-linecap: butt; stroke-linejoin: miter; stroke-miterlimit: 10; fill: rgb(0,0,0); fill-rule: nonzero; opacity: 1;" transform=" matrix(1 0 0 1 0 0) " stroke-linecap="round" />
	<path d="M 80.927 0 H 63.486 c -4.682 0 -8.492 3.81 -8.492 8.492 v 17.44 c 0 4.683 3.809 8.493 8.492 8.493 h 7.936 v 54.091 c 0 0.819 0.664 1.484 1.484 1.484 c 0.819 0 1.484 -0.664 1.484 -1.484 V 34.425 h 6.538 c 4.682 0 8.493 -3.81 8.493 -8.493 V 8.492 C 89.419 3.81 85.609 0 80.927 0 z M 86.452 25.933 c 0 3.047 -2.478 5.526 -5.526 5.526 H 63.486 c -3.046 0 -5.525 -2.479 -5.525 -5.526 V 8.492 c 0 -3.047 2.478 -5.525 5.525 -5.525 h 17.441 c 3.047 0 5.526 2.478 5.526 5.525 V 25.933 z" style="stroke: none; stroke-width: 1; stroke-dasharray: none; stroke-linecap: butt; stroke-linejoin: miter; stroke-miterlimit: 10; fill: rgb(0,0,0); fill-rule: nonzero; opacity: 1;" transform=" matrix(1 0 0 1 0 0) " stroke-linecap="round" />
</g>
</g>
</svg>