<?xml version="1.0" ?><svg data-name="Layer 3" id="Layer_3" viewBox="0 0 2050 2050" xmlns="http://www.w3.org/2000/svg"><defs><style>.cls-1{fill:#204fc7;}</style></defs><title/><path class="cls-1" d="M654.6,1544.7H463.7c-21,0-38.1-20.1-38.1-45V839c0-24.8,17.1-45,38.1-45H654.6c21.1,0,38.2,20.2,38.2,45v660.7C692.8,1524.6,675.7,1544.7,654.6,1544.7Z"/><path class="cls-1" d="M1560.6,908.1a217,217,0,0,0-154.2-63.8H1283V565a102.2,102.2,0,0,0-141.5-94.4,141.7,141.7,0,0,0-61.9,50.1L871.3,822.3h-.1A108.8,108.8,0,0,0,762.6,931.1v491a108.5,108.5,0,0,0,31.9,77l18.4,18.4a236.8,236.8,0,0,0,79.2,52.5,244.6,244.6,0,0,0,91.1,17.3h423.2a218,218,0,0,0,218-218v-307A217,217,0,0,0,1560.6,908.1Z"/></svg>